<svg width="85" height="86" viewBox="0 0 85 86" fill="none" xmlns="http://www.w3.org/2000/svg">
<g clip-path="url(#clip0_175_4788)">
<path d="M63.743 64.2129C67.9386 60.0173 70.7958 54.6718 71.9533 48.8524C73.1109 43.0329 72.5168 37.0009 70.2462 31.5192C67.9755 26.0374 64.1304 21.352 59.1969 18.0556C54.2634 14.7591 48.4632 12.9997 42.5298 12.9997C36.5963 12.9997 30.7962 14.7591 25.8627 18.0556C20.9292 21.352 17.084 26.0374 14.8134 31.5192C12.5428 37.0009 11.9487 43.0329 13.1062 48.8524C14.2638 54.6718 17.121 60.0173 21.3166 64.2129C26.9427 69.839 34.5733 72.9997 42.5298 72.9997C50.4863 72.9997 58.1169 69.839 63.743 64.2129ZM45.0577 57.1241C45.0557 57.7846 44.7925 58.4174 44.3255 58.8845C43.8585 59.3515 43.2256 59.6147 42.5651 59.6167C42.2351 59.618 41.9081 59.554 41.6029 59.4284C41.2978 59.3027 41.0205 59.1178 40.7871 58.8845C40.5538 58.6511 40.3689 58.3738 40.2432 58.0687C40.1176 57.7635 40.0536 57.4365 40.0549 57.1064L40.0549 46.1109C40.0473 45.9493 39.9797 45.7963 39.8652 45.6819C39.7508 45.5675 39.5978 45.4998 39.4362 45.4922L28.4407 45.4922C27.8129 45.4437 27.2266 45.16 26.7988 44.6979C26.3711 44.2358 26.1335 43.6293 26.1335 42.9997C26.1335 42.37 26.3711 41.7635 26.7988 41.3014C27.2266 40.8394 27.8129 40.5557 28.4407 40.5071L39.4362 40.5071C39.5978 40.4995 39.7508 40.4319 39.8652 40.3175C39.9797 40.203 40.0473 40.05 40.0549 39.8884L40.0549 28.8929C40.0536 28.5629 40.1176 28.2358 40.2432 27.9307C40.3689 27.6255 40.5538 27.3482 40.7871 27.1149C41.0205 26.8815 41.2978 26.6967 41.6029 26.571C41.9081 26.4453 42.2351 26.3813 42.5651 26.3827C43.2256 26.3846 43.8585 26.6479 44.3255 27.1149C44.7925 27.5819 45.0557 28.2147 45.0577 28.8752V39.8707C45.0551 39.9527 45.0693 40.0343 45.0995 40.1105C45.1297 40.1868 45.1751 40.256 45.2331 40.314C45.2911 40.372 45.3604 40.4175 45.4366 40.4476C45.5128 40.4778 45.5945 40.492 45.6764 40.4894L56.6719 40.4894C57.0016 40.4894 57.328 40.5544 57.6325 40.6805C57.9371 40.8067 58.2138 40.9916 58.4469 41.2247C58.68 41.4578 58.8649 41.7345 58.9911 42.039C59.1172 42.3436 59.1821 42.67 59.1821 42.9997C59.1822 43.3293 59.1172 43.6557 58.9911 43.9603C58.8649 44.2648 58.68 44.5416 58.4469 44.7747C58.2138 45.0078 57.9371 45.1927 57.6325 45.3188C57.328 45.445 57.0016 45.5099 56.6719 45.5099L45.6764 45.5099C45.5945 45.5073 45.5128 45.5215 45.4366 45.5517C45.3604 45.5819 45.2911 45.6274 45.2331 45.6853C45.1751 45.7433 45.1297 45.8126 45.0995 45.8888C45.0693 45.965 45.0551 46.0467 45.0577 46.1286V57.1241Z" fill="#34C759"/>
</g>
<defs>
<clipPath id="clip0_175_4788">
<rect width="60" height="60" fill="white" transform="translate(42.5298 0.573242) rotate(45)"/>
</clipPath>
</defs>
</svg>
