<svg width="41" height="40" viewBox="0 0 41 40" fill="none" xmlns="http://www.w3.org/2000/svg">
<path d="M10.3593 6.39941C10.8373 6.42705 11.3045 6.55553 11.7294 6.77637C12.1011 6.9696 12.4335 7.22954 12.7099 7.54297L12.8251 7.68066L22.8817 20.3604L23.121 20.6621L23.4735 20.5078C25.5022 19.6216 28.5929 19.4972 31.2177 22.1201C32.841 23.745 33.8435 25.7243 34.1845 27.5898C34.5188 29.4205 34.2438 31.3519 32.9853 32.6104H32.9843C31.7276 33.8683 29.7956 34.1438 27.9667 33.8096C26.2176 33.4899 24.3674 32.5888 22.8056 31.1387L22.497 30.8418C19.8706 28.217 19.9964 25.1275 20.8827 23.0986L21.037 22.7461L20.7353 22.5068L8.05557 12.4502C7.6803 12.1529 7.3721 11.7793 7.15128 11.3545C6.93044 10.9296 6.80196 10.4624 6.77432 9.98438C6.7467 9.50635 6.82073 9.02755 6.99112 8.58008C7.16153 8.13275 7.42412 7.72618 7.7626 7.3877C8.10109 7.04921 8.50766 6.78662 8.95499 6.61621C9.40246 6.44582 9.88126 6.37179 10.3593 6.39941Z" fill="#B25000" stroke="#7A3903"/>
</svg>
