<svg width="61" height="61" viewBox="0 0 61 61" fill="none" xmlns="http://www.w3.org/2000/svg">
<path d="M7.34254 53.2529C6.88421 53.2529 6.46754 53.1388 6.09254 52.9104C5.71754 52.6821 5.42587 52.3796 5.21754 52.0029C5.00921 51.6263 4.89504 51.2196 4.87504 50.7829C4.85504 50.3463 4.96921 49.9196 5.21754 49.5029L28.3425 9.50293C28.5925 9.08626 28.9159 8.77376 29.3125 8.56543C29.7092 8.3571 30.115 8.25293 30.53 8.25293C30.945 8.25293 31.3517 8.3571 31.75 8.56543C32.1484 8.77376 32.4709 9.08626 32.7175 9.50293L55.8425 49.5029C56.0925 49.9196 56.2075 50.3471 56.1875 50.7854C56.1675 51.2238 56.0525 51.6296 55.8425 52.0029C55.6325 52.3763 55.3409 52.6788 54.9675 52.9104C54.5942 53.1421 54.1775 53.2563 53.7175 53.2529H7.34254ZM30.53 45.7529C31.2384 45.7529 31.8325 45.5129 32.3125 45.0329C32.7925 44.5529 33.0317 43.9596 33.03 43.2529C33.0284 42.5463 32.7884 41.9529 32.31 41.4729C31.8317 40.9929 31.2384 40.7529 30.53 40.7529C29.8217 40.7529 29.2284 40.9929 28.75 41.4729C28.2717 41.9529 28.0317 42.5463 28.03 43.2529C28.0284 43.9596 28.2684 44.5538 28.75 45.0354C29.2317 45.5171 29.825 45.7563 30.53 45.7529ZM30.53 38.2529C31.2384 38.2529 31.8325 38.0129 32.3125 37.5329C32.7925 37.0529 33.0317 36.4596 33.03 35.7529V28.2529C33.03 27.5446 32.79 26.9513 32.31 26.4729C31.83 25.9946 31.2367 25.7546 30.53 25.7529C29.8234 25.7513 29.23 25.9913 28.75 26.4729C28.27 26.9546 28.03 27.5479 28.03 28.2529V35.7529C28.03 36.4613 28.27 37.0554 28.75 37.5354C29.23 38.0154 29.8234 38.2546 30.53 38.2529Z" fill="#FFD60A"/>
</svg>
