<svg width="61" height="60" viewBox="0 0 61 60" fill="none" xmlns="http://www.w3.org/2000/svg">
<path d="M60.5298 30C60.5298 24.0666 58.7703 18.2664 55.4739 13.3329C52.1774 8.39943 47.4921 4.55426 42.0103 2.28363C36.5285 0.0129986 30.4965 -0.581102 24.6771 0.576455C18.8577 1.73401 13.5122 4.59123 9.3166 8.78681C5.12102 12.9824 2.2638 18.3279 1.10624 24.1473C-0.0513164 29.9667 0.542784 35.9987 2.81341 41.4805C5.08404 46.9623 8.92922 51.6477 13.8627 54.9441C18.7962 58.2405 24.5964 60 30.5298 60C38.4863 60 46.1169 56.8393 51.743 51.2132C57.3691 45.5871 60.5298 37.9565 60.5298 30ZM42.3048 38.2C42.7704 38.6684 43.0318 39.302 43.0318 39.9625C43.0318 40.623 42.7704 41.2566 42.3048 41.725C42.0724 41.9593 41.7959 42.1453 41.4912 42.2722C41.1866 42.3992 40.8598 42.4645 40.5298 42.4645C40.1998 42.4645 39.873 42.3992 39.5684 42.2722C39.2637 42.1453 38.9872 41.9593 38.7548 41.725L30.9798 33.95C30.8601 33.8411 30.7041 33.7807 30.5423 33.7807C30.3805 33.7807 30.2245 33.8411 30.1048 33.95L22.3298 41.725C21.8515 42.1346 21.2364 42.3486 20.6072 42.3243C19.978 42.3 19.3811 42.0392 18.9359 41.5939C18.4907 41.1487 18.2298 40.5518 18.2055 39.9226C18.1812 39.2935 18.3952 38.6783 18.8048 38.2L26.5798 30.425C26.6887 30.3053 26.7491 30.1493 26.7491 29.9875C26.7491 29.8257 26.6887 29.6697 26.5798 29.55L18.8048 21.775C18.5705 21.5426 18.3845 21.2661 18.2576 20.9615C18.1306 20.6568 18.0653 20.33 18.0653 20C18.0653 19.67 18.1306 19.3432 18.2576 19.0386C18.3845 18.7339 18.5705 18.4574 18.8048 18.225C19.2732 17.7594 19.9068 17.498 20.5673 17.498C21.2278 17.498 21.8614 17.7594 22.3298 18.225L30.1048 26C30.1609 26.0598 30.2287 26.1075 30.3039 26.14C30.3792 26.1726 30.4603 26.1894 30.5423 26.1894C30.6243 26.1894 30.7054 26.1726 30.7807 26.14C30.8559 26.1075 30.9237 26.0598 30.9798 26L38.7548 18.225C38.9879 17.9919 39.2646 17.807 39.5692 17.6809C39.8737 17.5547 40.2002 17.4898 40.5298 17.4898C40.8594 17.4898 41.1859 17.5547 41.4904 17.6809C41.795 17.807 42.0717 17.9919 42.3048 18.225C42.5379 18.4581 42.7228 18.7348 42.8489 19.0394C42.9751 19.3439 43.04 19.6704 43.04 20C43.04 20.3297 42.9751 20.6561 42.8489 20.9606C42.7228 21.2652 42.5379 21.5419 42.3048 21.775L34.5298 29.55C34.47 29.6061 34.4224 29.6739 34.3898 29.7491C34.3572 29.8244 34.3404 29.9055 34.3404 29.9875C34.3404 30.0695 34.3572 30.1506 34.3898 30.2259C34.4224 30.3011 34.47 30.3689 34.5298 30.425L42.3048 38.2Z" fill="#D70015"/>
</svg>
