<svg width="61" height="61" viewBox="0 0 61 61" fill="none" xmlns="http://www.w3.org/2000/svg">
<g clip-path="url(#clip0_174_1970)">
<path d="M60.5298 30.7529C60.5298 24.8195 58.7703 19.0193 55.4739 14.0858C52.1774 9.15236 47.4921 5.30719 42.0103 3.03656C36.5285 0.765928 30.4965 0.171828 24.6771 1.32938C18.8577 2.48694 13.5122 5.34416 9.3166 9.53974C5.12102 13.7353 2.2638 19.0808 1.10624 24.9002C-0.0513164 30.7197 0.542784 36.7517 2.81341 42.2334C5.08404 47.7152 8.92922 52.4006 13.8627 55.697C18.7962 58.9935 24.5964 60.7529 30.5298 60.7529C38.4863 60.7529 46.1169 57.5922 51.743 51.9661C57.3691 46.3401 60.5298 38.7094 60.5298 30.7529ZM42.3048 38.9529C42.7704 39.4213 43.0318 40.055 43.0318 40.7154C43.0318 41.3759 42.7704 42.0095 42.3048 42.4779C42.0724 42.7123 41.7959 42.8983 41.4912 43.0252C41.1866 43.1521 40.8598 43.2174 40.5298 43.2174C40.1998 43.2174 39.873 43.1521 39.5684 43.0252C39.2637 42.8983 38.9872 42.7123 38.7548 42.4779L30.9798 34.7029C30.8601 34.594 30.7041 34.5337 30.5423 34.5337C30.3805 34.5337 30.2245 34.594 30.1048 34.7029L22.3298 42.4779C21.8515 42.8875 21.2364 43.1015 20.6072 43.0772C19.978 43.0529 19.3811 42.7921 18.9359 42.3469C18.4907 41.9016 18.2298 41.3048 18.2055 40.6756C18.1812 40.0464 18.3952 39.4312 18.8048 38.9529L26.5798 31.1779C26.6887 31.0583 26.7491 30.9023 26.7491 30.7404C26.7491 30.5786 26.6887 30.4226 26.5798 30.3029L18.8048 22.5279C18.5705 22.2955 18.3845 22.019 18.2576 21.7144C18.1306 21.4097 18.0653 21.083 18.0653 20.7529C18.0653 20.4229 18.1306 20.0961 18.2576 19.7915C18.3845 19.4869 18.5705 19.2104 18.8048 18.9779C19.2732 18.5123 19.9068 18.251 20.5673 18.251C21.2278 18.251 21.8614 18.5123 22.3298 18.9779L30.1048 26.7529C30.1609 26.8127 30.2287 26.8604 30.3039 26.893C30.3792 26.9255 30.4603 26.9423 30.5423 26.9423C30.6243 26.9423 30.7054 26.9255 30.7807 26.893C30.8559 26.8604 30.9237 26.8127 30.9798 26.7529L38.7548 18.9779C38.9879 18.7448 39.2646 18.5599 39.5692 18.4338C39.8737 18.3076 40.2002 18.2427 40.5298 18.2427C40.8594 18.2427 41.1859 18.3076 41.4904 18.4338C41.795 18.5599 42.0717 18.7448 42.3048 18.9779C42.5379 19.211 42.7228 19.4878 42.8489 19.7923C42.9751 20.0969 43.04 20.4233 43.04 20.7529C43.04 21.0826 42.9751 21.409 42.8489 21.7136C42.7228 22.0181 42.5379 22.2948 42.3048 22.5279L34.5298 30.3029C34.47 30.3591 34.4224 30.4268 34.3898 30.5021C34.3572 30.5773 34.3404 30.6584 34.3404 30.7404C34.3404 30.8224 34.3572 30.9036 34.3898 30.9788C34.4224 31.0541 34.47 31.1218 34.5298 31.1779L42.3048 38.9529Z" fill="#D70015"/>
</g>
<defs>
<clipPath id="clip0_174_1970">
<rect width="60" height="60" fill="white" transform="translate(0.529785 0.75293)"/>
</clipPath>
</defs>
</svg>
