<svg width="25" height="24" viewBox="0 0 25 24" fill="none" xmlns="http://www.w3.org/2000/svg">
<rect width="24.0311" height="24" transform="translate(0.343262 0.00976562)" fill="white"/>
<path d="M7.34326 6.01074C7.34326 5.80074 7.34326 5.69724 7.35526 5.61024C7.39344 5.3353 7.5203 5.08034 7.71658 4.88406C7.91286 4.68779 8.16782 4.56092 8.44276 4.52274C8.52826 4.51074 8.63326 4.51074 8.84326 4.51074C9.05326 4.51074 9.15676 4.51074 9.24376 4.52274C9.5187 4.56092 9.77367 4.68779 9.96994 4.88406C10.1662 5.08034 10.2931 5.3353 10.3313 5.61024C10.3433 5.69574 10.3433 5.80074 10.3433 6.01074C10.3433 6.22074 10.3433 6.32424 10.3313 6.41124C10.2931 6.68618 10.1662 6.94115 9.96994 7.13742C9.77367 7.3337 9.5187 7.46056 9.24376 7.49874C9.15826 7.51074 9.05326 7.51074 8.84326 7.51074C8.63326 7.51074 8.52976 7.51074 8.44276 7.49874C8.16782 7.46056 7.91286 7.3337 7.71658 7.13742C7.5203 6.94115 7.39344 6.68618 7.35526 6.41124C7.34326 6.32574 7.34326 6.22074 7.34326 6.01074ZM7.34326 12.0107C7.34326 11.8007 7.34326 11.6972 7.35526 11.6102C7.39344 11.3353 7.5203 11.0803 7.71658 10.8841C7.91286 10.6878 8.16782 10.5609 8.44276 10.5227C8.52826 10.5107 8.63326 10.5107 8.84326 10.5107C9.05326 10.5107 9.15676 10.5107 9.24376 10.5227C9.5187 10.5609 9.77367 10.6878 9.96994 10.8841C10.1662 11.0803 10.2931 11.3353 10.3313 11.6102C10.3433 11.6957 10.3433 11.8007 10.3433 12.0107C10.3433 12.2207 10.3433 12.3242 10.3313 12.4112C10.2931 12.6862 10.1662 12.9411 9.96994 13.1374C9.77367 13.3337 9.5187 13.4606 9.24376 13.4987C9.15826 13.5107 9.05326 13.5107 8.84326 13.5107C8.63326 13.5107 8.52976 13.5107 8.44276 13.4987C8.16782 13.4606 7.91286 13.3337 7.71658 13.1374C7.5203 12.9411 7.39344 12.6862 7.35526 12.4112C7.34326 12.3257 7.34326 12.2207 7.34326 12.0107ZM7.34326 18.0107C7.34326 17.8022 7.34326 17.6972 7.35526 17.6102C7.39367 17.3358 7.52044 17.0813 7.7164 16.8854C7.91235 16.6894 8.16681 16.5626 8.44126 16.5242C8.52976 16.5122 8.63326 16.5122 8.84176 16.5122C9.05026 16.5122 9.15676 16.5122 9.24226 16.5242C9.51671 16.5626 9.77117 16.6894 9.96713 16.8854C10.1631 17.0813 10.2899 17.3358 10.3283 17.6102C10.3403 17.6972 10.3403 17.8022 10.3403 18.0107C10.3403 18.2192 10.3403 18.3242 10.3283 18.4112C10.2899 18.6857 10.1631 18.9402 9.96713 19.1361C9.77117 19.3321 9.51671 19.4588 9.24226 19.4972C9.15526 19.5092 9.05026 19.5092 8.84176 19.5092C8.63326 19.5092 8.52826 19.5092 8.44126 19.4972C8.16681 19.4588 7.91235 19.3321 7.7164 19.1361C7.52044 18.9402 7.39367 18.6857 7.35526 18.4112C7.34326 18.3242 7.34326 18.2192 7.34326 18.0107Z" fill="#CDD1D5"/>
<path d="M13.3433 6.01074C13.3433 5.80074 13.3433 5.69724 13.3553 5.61024C13.3934 5.3353 13.5203 5.08034 13.7166 4.88406C13.9129 4.68779 14.1678 4.56092 14.4428 4.52274C14.5283 4.51074 14.6333 4.51074 14.8433 4.51074C15.0533 4.51074 15.1568 4.51074 15.2438 4.52274C15.5187 4.56092 15.7737 4.68779 15.9699 4.88406C16.1662 5.08034 16.2931 5.3353 16.3313 5.61024C16.3433 5.69574 16.3433 5.80074 16.3433 6.01074C16.3433 6.22074 16.3433 6.32424 16.3313 6.41124C16.2931 6.68618 16.1662 6.94115 15.9699 7.13742C15.7737 7.3337 15.5187 7.46056 15.2438 7.49874C15.1583 7.51074 15.0533 7.51074 14.8433 7.51074C14.6333 7.51074 14.5298 7.51074 14.4428 7.49874C14.1678 7.46056 13.9129 7.3337 13.7166 7.13742C13.5203 6.94115 13.3934 6.68618 13.3553 6.41124C13.3433 6.32574 13.3433 6.22074 13.3433 6.01074ZM13.3433 12.0107C13.3433 11.8007 13.3433 11.6972 13.3553 11.6102C13.3934 11.3353 13.5203 11.0803 13.7166 10.8841C13.9129 10.6878 14.1678 10.5609 14.4428 10.5227C14.5283 10.5107 14.6333 10.5107 14.8433 10.5107C15.0533 10.5107 15.1568 10.5107 15.2438 10.5227C15.5187 10.5609 15.7737 10.6878 15.9699 10.8841C16.1662 11.0803 16.2931 11.3353 16.3313 11.6102C16.3433 11.6957 16.3433 11.8007 16.3433 12.0107C16.3433 12.2207 16.3433 12.3242 16.3313 12.4112C16.2931 12.6862 16.1662 12.9411 15.9699 13.1374C15.7737 13.3337 15.5187 13.4606 15.2438 13.4987C15.1583 13.5107 15.0533 13.5107 14.8433 13.5107C14.6333 13.5107 14.5298 13.5107 14.4428 13.4987C14.1678 13.4606 13.9129 13.3337 13.7166 13.1374C13.5203 12.9411 13.3934 12.6862 13.3553 12.4112C13.3433 12.3257 13.3433 12.2207 13.3433 12.0107ZM13.3433 18.0107C13.3433 17.8022 13.3433 17.6972 13.3553 17.6102C13.3937 17.3358 13.5204 17.0813 13.7164 16.8854C13.9124 16.6894 14.1668 16.5626 14.4413 16.5242C14.5298 16.5122 14.6333 16.5122 14.8418 16.5122C15.0503 16.5122 15.1568 16.5122 15.2423 16.5242C15.5167 16.5626 15.7712 16.6894 15.9671 16.8854C16.1631 17.0813 16.2899 17.3358 16.3283 17.6102C16.3403 17.6972 16.3403 17.8022 16.3403 18.0107C16.3403 18.2192 16.3403 18.3242 16.3283 18.4112C16.2899 18.6857 16.1631 18.9402 15.9671 19.1361C15.7712 19.3321 15.5167 19.4588 15.2423 19.4972C15.1553 19.5092 15.0503 19.5092 14.8418 19.5092C14.6333 19.5092 14.5283 19.5092 14.4413 19.4972C14.1668 19.4588 13.9124 19.3321 13.7164 19.1361C13.5204 18.9402 13.3937 18.6857 13.3553 18.4112C13.3433 18.3242 13.3433 18.2192 13.3433 18.0107Z" fill="#CDD1D5"/>
</svg>
