<svg width="30" height="30" viewBox="0 0 30 30" fill="none" xmlns="http://www.w3.org/2000/svg">
<path d="M17.5 18.7947C17.5 20.3384 19.3563 21.9734 20.65 22.9259C21.1938 23.3259 21.465 23.5259 21.875 23.5259C22.285 23.5259 22.5562 23.3259 23.1 22.9259C24.3937 21.9734 26.25 20.3384 26.25 18.7947C26.25 16.2847 23.8438 15.3484 21.875 17.2872C19.9062 15.3484 17.5 16.2847 17.5 18.7947Z" fill="#7D7AFF"/>
<path fill-rule="evenodd" clip-rule="evenodd" d="M2.8125 7.5C2.8125 7.25136 2.91127 7.0129 3.08709 6.83709C3.2629 6.66127 3.50136 6.5625 3.75 6.5625H26.25C26.4986 6.5625 26.7371 6.66127 26.9129 6.83709C27.0887 7.0129 27.1875 7.25136 27.1875 7.5C27.1875 7.74864 27.0887 7.9871 26.9129 8.16291C26.7371 8.33873 26.4986 8.4375 26.25 8.4375H3.75C3.50136 8.4375 3.2629 8.33873 3.08709 8.16291C2.91127 7.9871 2.8125 7.74864 2.8125 7.5ZM2.8125 12.5C2.8125 12.2514 2.91127 12.0129 3.08709 11.8371C3.2629 11.6613 3.50136 11.5625 3.75 11.5625H26.25C26.4986 11.5625 26.7371 11.6613 26.9129 11.8371C27.0887 12.0129 27.1875 12.2514 27.1875 12.5C27.1875 12.7486 27.0887 12.9871 26.9129 13.1629C26.7371 13.3387 26.4986 13.4375 26.25 13.4375H3.75C3.50136 13.4375 3.2629 13.3387 3.08709 13.1629C2.91127 12.9871 2.8125 12.7486 2.8125 12.5ZM2.8125 17.5C2.8125 17.2514 2.91127 17.0129 3.08709 16.8371C3.2629 16.6613 3.50136 16.5625 3.75 16.5625H12.5C12.7486 16.5625 12.9871 16.6613 13.1629 16.8371C13.3387 17.0129 13.4375 17.2514 13.4375 17.5C13.4375 17.7486 13.3387 17.9871 13.1629 18.1629C12.9871 18.3387 12.7486 18.4375 12.5 18.4375H3.75C3.50136 18.4375 3.2629 18.3387 3.08709 18.1629C2.91127 17.9871 2.8125 17.7486 2.8125 17.5ZM2.8125 22.5C2.8125 22.2514 2.91127 22.0129 3.08709 21.8371C3.2629 21.6613 3.50136 21.5625 3.75 21.5625H12.5C12.7486 21.5625 12.9871 21.6613 13.1629 21.8371C13.3387 22.0129 13.4375 22.2514 13.4375 22.5C13.4375 22.7486 13.3387 22.9871 13.1629 23.1629C12.9871 23.3387 12.7486 23.4375 12.5 23.4375H3.75C3.50136 23.4375 3.2629 23.3387 3.08709 23.1629C2.91127 22.9871 2.8125 22.7486 2.8125 22.5Z" fill="#7D7AFF"/>
</svg>
