<svg width="72" height="89" viewBox="0 0 72 89" fill="none" xmlns="http://www.w3.org/2000/svg">
<path fill-rule="evenodd" clip-rule="evenodd" d="M38.2055 22.3357L40.0605 38.4129C40.1238 38.9586 40.0709 39.5116 39.9054 40.0354C39.7398 40.5593 39.4654 41.0422 39.1 41.4524C38.7345 41.8626 38.2865 42.1909 37.7852 42.4157C37.2839 42.6405 36.7408 42.7568 36.1914 42.7568C35.642 42.7568 35.0989 42.6405 34.5976 42.4157C34.0963 42.1909 33.6483 41.8626 33.2829 41.4524C32.9175 41.0422 32.643 40.5593 32.4774 40.0354C32.3119 39.5116 32.259 38.9586 32.3224 38.4129L34.1773 22.3357C31.9641 21.4683 29.5246 19.2103 29.5234 15.254C29.5246 12.8604 30.2435 10.6519 31.3819 9.00434C32.4897 7.40157 34.1832 6.08753 36.1914 6.08753C38.1984 6.08635 39.8931 7.40157 40.9997 9.00316C42.1382 10.6507 42.8582 12.8604 42.8571 15.254C42.8582 19.2126 40.4187 21.4683 38.2055 22.3357Z" fill="#7D7AFF"/>
<path d="M33.6565 41.1198C33.338 40.7622 33.0985 40.341 32.9542 39.8844C32.828 39.485 32.7768 39.0661 32.803 38.649L32.8188 38.4702L34.6736 22.3932L34.7178 22.0106L34.3594 21.8704C32.2983 21.0626 30.0249 18.9651 30.0236 15.2544C30.0247 12.9576 30.7154 10.8491 31.7934 9.28892C32.8515 7.75804 34.4116 6.58686 36.1914 6.58686L36.1921 6.58755C37.9702 6.58668 39.5311 7.75793 40.588 9.28754C41.5988 10.7504 42.2699 12.6959 42.3489 14.8256L42.3572 15.2538C42.3583 18.9669 40.0847 21.0625 38.0234 21.8704L37.665 22.0106L37.7092 22.3932L39.564 38.4702C39.6191 38.9457 39.5728 39.4279 39.4286 39.8844C39.2843 40.341 39.0449 40.7622 38.7264 41.1198C38.4079 41.4773 38.017 41.7635 37.5801 41.9595C37.1433 42.1553 36.6701 42.2571 36.1914 42.2571C35.7127 42.2571 35.2395 42.1553 34.8027 41.9595C34.3658 41.7635 33.9749 41.4773 33.6565 41.1198Z" stroke="black" stroke-opacity="0.09"/>
<path d="M53.5868 36.0312C63.1547 45.5991 63.1547 61.1116 53.5868 70.6795L39.1236 85.1427C37.5437 86.7225 34.9817 86.7225 33.4018 85.1427L18.9386 70.6795C9.37073 61.1116 9.37074 45.5991 18.9386 36.0312C28.5064 26.4634 44.019 26.4634 53.5868 36.0312Z" fill="#7D7AFF" stroke="#726FE8"/>
<circle cx="35.9072" cy="53" r="19.5" fill="white" stroke="#726FE8"/>
<circle cx="2" cy="2" r="2" transform="matrix(1 0 0 -1 26.9072 51)" fill="#726FE8"/>
<circle cx="2" cy="2" r="2" transform="matrix(1 0 0 -1 40.9072 51)" fill="#726FE8"/>
<path d="M28.1273 58.5667C28.3629 58.66 28.5495 58.8067 28.6873 59.0067C28.8295 59.2022 28.9007 59.44 28.9007 59.72C28.9007 60.1289 28.7473 60.4444 28.4407 60.6667C28.134 60.8889 27.6873 61 27.1007 61H24.7407V56.3333H26.974C27.5251 56.3333 27.9473 56.4444 28.2407 56.6667C28.534 56.8844 28.6807 57.18 28.6807 57.5533C28.6807 57.7711 28.6295 57.9689 28.5273 58.1467C28.4295 58.32 28.2962 58.46 28.1273 58.5667ZM25.9007 58.2H26.8207C27.2829 58.2 27.514 58.04 27.514 57.72C27.514 57.4044 27.2829 57.2467 26.8207 57.2467H25.9007V58.2ZM27.0007 60.0867C27.4851 60.0867 27.7273 59.92 27.7273 59.5867C27.7273 59.2533 27.4851 59.0867 27.0007 59.0867H25.9007V60.0867H27.0007ZM31.0607 61.06C30.6918 61.06 30.3607 60.98 30.0673 60.82C29.7785 60.66 29.5518 60.44 29.3873 60.16C29.2229 59.8756 29.1407 59.5533 29.1407 59.1933C29.1407 58.8378 29.2229 58.5178 29.3873 58.2333C29.5518 57.9489 29.7785 57.7289 30.0673 57.5733C30.3607 57.4133 30.6918 57.3333 31.0607 57.3333C31.4251 57.3333 31.7518 57.4133 32.0407 57.5733C32.334 57.7289 32.5629 57.9489 32.7273 58.2333C32.8918 58.5178 32.974 58.8378 32.974 59.1933C32.974 59.5533 32.8918 59.8756 32.7273 60.16C32.5629 60.44 32.334 60.66 32.0407 60.82C31.7518 60.98 31.4251 61.06 31.0607 61.06ZM31.0607 60.0933C31.2918 60.0933 31.4785 60.0133 31.6207 59.8533C31.7673 59.6933 31.8407 59.4733 31.8407 59.1933C31.8407 58.9178 31.7673 58.7 31.6207 58.54C31.474 58.3756 31.2873 58.2933 31.0607 58.2933C30.834 58.2933 30.6473 58.3756 30.5007 58.54C30.354 58.7 30.2807 58.9178 30.2807 59.1933C30.2807 59.4733 30.354 59.6933 30.5007 59.8533C30.6473 60.0133 30.834 60.0933 31.0607 60.0933ZM35.5212 57.3333C35.8412 57.3333 36.1301 57.4111 36.3879 57.5667C36.6501 57.7178 36.8546 57.9333 37.0012 58.2133C37.1523 58.4933 37.2279 58.82 37.2279 59.1933C37.2279 59.5667 37.1523 59.8956 37.0012 60.18C36.8546 60.46 36.6501 60.6778 36.3879 60.8333C36.1301 60.9844 35.8412 61.06 35.5212 61.06C35.0812 61.06 34.7412 60.9311 34.5012 60.6733V61H33.4346V56.0533H34.5546V57.68C34.8034 57.4489 35.1257 57.3333 35.5212 57.3333ZM35.3212 60.0933C35.5479 60.0933 35.7323 60.0133 35.8746 59.8533C36.0212 59.6933 36.0946 59.4733 36.0946 59.1933C36.0946 58.9178 36.0212 58.7 35.8746 58.54C35.7323 58.3756 35.5479 58.2933 35.3212 58.2933C35.0946 58.2933 34.9079 58.3756 34.7612 58.54C34.6146 58.7 34.5412 58.9178 34.5412 59.1933C34.5412 59.4733 34.6123 59.6933 34.7546 59.8533C34.9012 60.0133 35.0901 60.0933 35.3212 60.0933ZM38.1262 61.06C37.9262 61.06 37.7551 60.9911 37.6129 60.8533C37.4751 60.7156 37.4062 60.5422 37.4062 60.3333C37.4062 60.12 37.4751 59.9489 37.6129 59.82C37.7507 59.6867 37.9218 59.62 38.1262 59.62C38.3307 59.62 38.5018 59.6867 38.6396 59.82C38.7773 59.9489 38.8462 60.12 38.8462 60.3333C38.8462 60.5422 38.7751 60.7156 38.6329 60.8533C38.4951 60.9911 38.3262 61.06 38.1262 61.06ZM42.301 61H39.181V60.2933L40.841 58.2933H39.2343V57.3933H42.2477V58.1L40.5943 60.1H42.301V61ZM43.3118 56.96C43.1073 56.96 42.9407 56.9 42.8118 56.78C42.6873 56.6556 42.6251 56.5022 42.6251 56.32C42.6251 56.1378 42.6873 55.9867 42.8118 55.8667C42.9407 55.7422 43.1073 55.68 43.3118 55.68C43.5118 55.68 43.674 55.7378 43.7984 55.8533C43.9273 55.9689 43.9918 56.1156 43.9918 56.2933C43.9918 56.4889 43.9273 56.6489 43.7984 56.7733C43.674 56.8978 43.5118 56.96 43.3118 56.96ZM43.8651 57.3933V61H42.7451V57.3933H43.8651ZM46.654 57.3333C46.974 57.3333 47.2629 57.4111 47.5207 57.5667C47.7829 57.7178 47.9874 57.9333 48.134 58.2133C48.2851 58.4933 48.3607 58.82 48.3607 59.1933C48.3607 59.5667 48.2851 59.8956 48.134 60.18C47.9874 60.46 47.7829 60.6778 47.5207 60.8333C47.2629 60.9844 46.974 61.06 46.654 61.06C46.2585 61.06 45.9363 60.9444 45.6874 60.7133V62.2933H44.5674V57.3933H45.634V57.7133C45.874 57.46 46.214 57.3333 46.654 57.3333ZM46.454 60.0933C46.6807 60.0933 46.8651 60.0133 47.0074 59.8533C47.154 59.6933 47.2274 59.4733 47.2274 59.1933C47.2274 58.9178 47.154 58.7 47.0074 58.54C46.8651 58.3756 46.6807 58.2933 46.454 58.2933C46.2274 58.2933 46.0407 58.3756 45.894 58.54C45.7474 58.7 45.674 58.9178 45.674 59.1933C45.674 59.4733 45.7451 59.6933 45.8874 59.8533C46.034 60.0133 46.2229 60.0933 46.454 60.0933Z" fill="#726FE8"/>
</svg>
