<svg width="201" height="83" viewBox="0 0 201 83" fill="none" xmlns="http://www.w3.org/2000/svg">
<path d="M32.5262 51.566C34.4891 52.3437 36.0447 53.566 37.1928 55.2326C38.378 56.8623 38.9706 58.8437 38.9706 61.1771C38.9706 64.5845 37.6928 67.2141 35.1373 69.066C32.5817 70.9178 28.8595 71.8438 23.9706 71.8438H4.30393V32.9549H22.915C27.5076 32.9549 31.0262 33.8808 33.4706 35.7326C35.915 37.5475 37.1373 40.0104 37.1373 43.1215C37.1373 44.9363 36.7113 46.5845 35.8595 48.066C35.0447 49.5104 33.9336 50.6771 32.5262 51.566ZM13.9706 48.5104H21.6373C25.4891 48.5104 27.415 47.1771 27.415 44.5104C27.415 41.8808 25.4891 40.566 21.6373 40.566H13.9706V48.5104ZM23.1373 64.2326C27.1743 64.2326 29.1928 62.8437 29.1928 60.066C29.1928 57.2882 27.1743 55.8993 23.1373 55.8993H13.9706V64.2326H23.1373ZM54.8041 41.2882C59.3967 41.2882 62.9153 42.4363 65.3597 44.7326C67.8412 46.9919 69.0819 50.4363 69.0819 55.066V71.8438H60.3597V68.4549C58.7671 71.0475 55.9523 72.3437 51.9153 72.3437C49.7301 72.3437 47.8227 71.9549 46.193 71.1771C44.6004 70.3623 43.3597 69.2512 42.4708 67.8438C41.619 66.4363 41.193 64.8623 41.193 63.1215C41.193 60.2697 42.2116 58.0475 44.2486 56.4549C46.3227 54.8252 49.5078 54.0104 53.8041 54.0104H59.693C59.693 52.603 59.4338 51.5475 58.9153 50.8437C57.8041 49.6586 56.0078 49.066 53.5264 49.066C52.0819 49.066 50.6375 49.2882 49.193 49.7326C47.7856 50.1771 46.5819 50.8067 45.5819 51.6215L42.3041 44.7882C43.8597 43.6771 45.7486 42.8252 47.9708 42.2326C50.193 41.603 52.4708 41.2882 54.8041 41.2882ZM54.3041 65.7882C55.5634 65.7882 56.6745 65.4919 57.6375 64.8993C58.6375 64.2697 59.3227 63.3808 59.693 62.2326V59.6215H54.8597C51.8227 59.6215 50.3041 60.64 50.3041 62.6771C50.3041 63.603 50.656 64.3623 51.3597 64.9549C52.1004 65.5104 53.0819 65.7882 54.3041 65.7882ZM92.0913 41.2882C94.7579 41.2882 97.1653 41.9363 99.3135 43.2326C101.499 44.4919 103.202 46.2882 104.425 48.6215C105.684 50.9549 106.313 53.6771 106.313 56.7882C106.313 59.8993 105.684 62.64 104.425 65.0104C103.202 67.3437 101.499 69.1586 99.3135 70.4549C97.1653 71.7141 94.7579 72.3437 92.0913 72.3437C88.4246 72.3437 85.5913 71.2697 83.5913 69.1215V71.8438H74.7024V30.6215H84.0357V44.1771C86.1098 42.2512 88.795 41.2882 92.0913 41.2882ZM90.4246 64.2882C92.3135 64.2882 93.8505 63.6215 95.0357 62.2882C96.2579 60.9549 96.869 59.1215 96.869 56.7882C96.869 54.4919 96.2579 52.6771 95.0357 51.3438C93.8505 49.9734 92.3135 49.2882 90.4246 49.2882C88.5357 49.2882 86.9801 49.9734 85.7579 51.3438C84.5357 52.6771 83.9246 54.4919 83.9246 56.7882C83.9246 59.1215 84.5172 60.9549 85.7024 62.2882C86.9246 63.6215 88.4987 64.2882 90.4246 64.2882ZM113.8 72.3437C112.133 72.3437 110.707 71.7697 109.522 70.6215C108.374 69.4734 107.8 68.0289 107.8 66.2882C107.8 64.5104 108.374 63.0845 109.522 62.0104C110.67 60.8993 112.096 60.3437 113.8 60.3437C115.503 60.3437 116.929 60.8993 118.077 62.0104C119.226 63.0845 119.8 64.5104 119.8 66.2882C119.8 68.0289 119.207 69.4734 118.022 70.6215C116.874 71.7697 115.466 72.3437 113.8 72.3437ZM148.59 71.8438H122.59V65.9549L136.423 49.2882H123.034V41.7882H148.145V47.6771L134.367 64.3437H148.59V71.8438ZM157.012 38.1771C155.309 38.1771 153.92 37.6771 152.846 36.6771C151.809 35.64 151.29 34.3623 151.29 32.8437C151.29 31.3252 151.809 30.066 152.846 29.066C153.92 28.0289 155.309 27.5104 157.012 27.5104C158.679 27.5104 160.031 27.9919 161.068 28.9549C162.142 29.9178 162.679 31.14 162.679 32.6215C162.679 34.2512 162.142 35.5845 161.068 36.6215C160.031 37.6586 158.679 38.1771 157.012 38.1771ZM161.624 41.7882V71.8438H152.29V41.7882H161.624ZM184.865 41.2882C187.531 41.2882 189.939 41.9363 192.087 43.2326C194.272 44.4919 195.976 46.2882 197.198 48.6215C198.457 50.9549 199.087 53.6771 199.087 56.7882C199.087 59.8993 198.457 62.64 197.198 65.0104C195.976 67.3437 194.272 69.1586 192.087 70.4549C189.939 71.7141 187.531 72.3437 184.865 72.3437C181.568 72.3437 178.883 71.3808 176.809 69.4549V82.6215H167.476V41.7882H176.365V44.4549C178.365 42.3438 181.198 41.2882 184.865 41.2882ZM183.198 64.2882C185.087 64.2882 186.624 63.6215 187.809 62.2882C189.031 60.9549 189.642 59.1215 189.642 56.7882C189.642 54.4919 189.031 52.6771 187.809 51.3438C186.624 49.9734 185.087 49.2882 183.198 49.2882C181.309 49.2882 179.754 49.9734 178.531 51.3438C177.309 52.6771 176.698 54.4919 176.698 56.7882C176.698 59.1215 177.291 60.9549 178.476 62.2882C179.698 63.6215 181.272 64.2882 183.198 64.2882Z" fill="#7D7AFF"/>
<path d="M0.505347 6.13333V3.76889H3.45646V2.70222H6.42535V3.76889H9.39424V6.13333H0.505347ZM14.4076 8.90667H12.9676V13.12H10.0876V2.95111H12.9676V5.93778H14.4076V8.90667ZM4.96757 12.0356C3.81794 12.0356 2.85201 11.7867 2.06979 11.2889C1.29942 10.7911 0.914236 10.0978 0.914236 9.20889C0.914236 8.30815 1.29942 7.61481 2.06979 7.12889C2.85201 6.63111 3.81794 6.38222 4.96757 6.38222C6.10535 6.38222 7.05942 6.63111 7.82979 7.12889C8.60016 7.61481 8.98535 8.30815 8.98535 9.20889C8.98535 10.0978 8.60016 10.7911 7.82979 11.2889C7.05942 11.7867 6.10535 12.0356 4.96757 12.0356ZM4.96757 8.56889C4.58831 8.56889 4.27424 8.63407 4.02535 8.76444C3.78831 8.88296 3.66979 9.03111 3.66979 9.20889C3.66979 9.38667 3.78831 9.54074 4.02535 9.67111C4.27424 9.78963 4.58831 9.84889 4.96757 9.84889C5.34683 9.84889 5.64905 9.78963 5.87424 9.67111C6.11127 9.54074 6.22979 9.38667 6.22979 9.20889C6.22979 9.03111 6.11127 8.88296 5.87424 8.76444C5.6372 8.63407 5.33498 8.56889 4.96757 8.56889ZM13.1098 14.0267V16.6578H1.32313V12.32H4.25646V14.0267H13.1098ZM24.7835 6.52444C24.0132 7.24741 23.0947 7.8163 22.028 8.23111C20.9732 8.63407 19.8295 8.84741 18.5969 8.87111V6.29333C19.4265 6.25778 20.2147 6.08593 20.9613 5.77778C21.708 5.45778 22.3302 5.01926 22.828 4.46222C23.3376 3.90518 23.6576 3.26518 23.788 2.54222L26.7035 3.04C26.5969 3.62074 26.4428 4.11259 26.2413 4.51556L31.4502 6.61333L30.3658 8.94222L24.7835 6.52444ZM31.4147 12.1067H18.2413V9.61778H23.3791V7.91111H26.2769V9.61778H31.4147V12.1067ZM30.8458 14.1156V16.6578H18.9524V12.5867H21.9035V14.1156H30.8458ZM45.3683 16.6044H42.6661V2.95111H45.3683V16.6044ZM42.0439 3.00444V16.3733H39.3594V10.9156H38.7017C38.595 12.7644 38.275 14.1037 37.7417 14.9333C37.2083 15.763 36.4557 16.1778 35.4839 16.1778C34.4172 16.1778 33.6113 15.6622 33.0661 14.6311C32.5328 13.6 32.2661 11.9289 32.2661 9.61778C32.2661 7.31852 32.5328 5.65333 33.0661 4.62222C33.6113 3.57926 34.4172 3.05778 35.4839 3.05778C36.432 3.05778 37.1669 3.44889 37.6883 4.23111C38.2217 5.01333 38.5535 6.26963 38.6839 8H39.3594V3.00444H42.0439ZM35.4839 13.44C35.6972 13.44 35.8454 13.1437 35.9283 12.5511C36.0113 11.9585 36.0528 10.9807 36.0528 9.61778C36.0528 8.25481 36.0113 7.27704 35.9283 6.68444C35.8454 6.09185 35.6972 5.79556 35.4839 5.79556C35.2824 5.79556 35.1402 6.09778 35.0572 6.70222C34.9743 7.29481 34.9328 8.26667 34.9328 9.61778C34.9328 10.9689 34.9743 11.9467 35.0572 12.5511C35.1402 13.1437 35.2824 13.44 35.4839 13.44ZM62.2332 8.01778V10.3289H59.3532V2.95111H62.2332V5.06667H63.6732V8.01778H62.2332ZM58.8554 9.54667C58.5354 9.67704 58.1147 9.7837 57.5932 9.86667C57.0836 9.94963 56.5739 9.99111 56.0643 9.99111H50.1443V3.05778H58.1621V5.54667H53.0421V7.50222H56.171C56.6806 7.50222 57.1725 7.46667 57.6465 7.39556C58.1325 7.32444 58.5354 7.2237 58.8554 7.09333V9.54667ZM62.2332 10.7378V16.6578H50.5888V10.7378H62.2332ZM59.3532 14.1689V13.2267H53.4865V14.1689H59.3532ZM70.5869 2.68444C72.4121 2.68444 73.8698 2.95704 74.9602 3.50222C76.0624 4.03556 76.6135 4.8237 76.6135 5.86667C76.6135 6.90963 76.0624 7.7037 74.9602 8.24889C73.8698 8.78222 72.4121 9.04889 70.5869 9.04889C68.7617 9.04889 67.3039 8.78222 66.2135 8.24889C65.1232 7.7037 64.578 6.90963 64.578 5.86667C64.578 4.8237 65.1172 4.03556 66.1958 3.50222C67.2861 2.95704 68.7498 2.68444 70.5869 2.68444ZM70.5869 5.01333C69.6743 5.01333 68.9513 5.09037 68.418 5.24444C67.8965 5.39852 67.6358 5.60593 67.6358 5.86667C67.6358 6.12741 67.8965 6.33481 68.418 6.48889C68.9395 6.63111 69.6624 6.70222 70.5869 6.70222C71.5113 6.70222 72.2284 6.63111 72.738 6.48889C73.2595 6.33481 73.5202 6.12741 73.5202 5.86667C73.5202 5.60593 73.2595 5.39852 72.738 5.24444C72.2165 5.09037 71.4995 5.01333 70.5869 5.01333ZM63.9913 12V9.51111H77.1647V12H63.9913ZM76.5958 14.1156V16.6578H64.7024V12.5689H67.6535V14.1156H76.5958ZM93.9051 10.72V16.6044H91.0251V2.95111H93.9051V7.78667H95.3451V10.72H93.9051ZM87.2206 13.2444C87.8369 13.2444 88.4532 13.1911 89.0695 13.0844C89.6858 12.9778 90.1895 12.8296 90.5806 12.64V15.3778C90.2014 15.5793 89.6917 15.7393 89.0517 15.8578C88.4117 15.9644 87.7658 16.0178 87.114 16.0178H81.9762V3.12889H84.9273V13.2444H87.2206ZM105.494 16.6044V2.95111H108.374V16.6044H105.494ZM100.179 2.98667C100.985 2.98667 101.702 3.17037 102.33 3.53778C102.97 3.90518 103.468 4.42667 103.823 5.10222C104.179 5.77778 104.357 6.56 104.357 7.44889C104.357 8.33778 104.179 9.12593 103.823 9.81333C103.468 10.4889 102.97 11.0104 102.33 11.3778C101.702 11.7452 100.985 11.9289 100.179 11.9289C99.361 11.9289 98.6321 11.7452 97.9921 11.3778C97.3639 11.0104 96.8721 10.4889 96.5165 9.81333C96.161 9.12593 95.9832 8.33778 95.9832 7.44889C95.9832 6.56 96.161 5.77778 96.5165 5.10222C96.8721 4.42667 97.3639 3.90518 97.9921 3.53778C98.6321 3.17037 99.361 2.98667 100.179 2.98667ZM100.179 5.68889C99.7402 5.68889 99.3965 5.85481 99.1476 6.18667C98.8988 6.51852 98.7743 6.93926 98.7743 7.44889C98.7743 7.97037 98.8988 8.39704 99.1476 8.72889C99.3965 9.04889 99.7402 9.20889 100.179 9.20889C100.605 9.20889 100.949 9.04889 101.21 8.72889C101.471 8.39704 101.601 7.97037 101.601 7.44889C101.601 6.93926 101.471 6.51852 101.21 6.18667C100.949 5.85481 100.605 5.68889 100.179 5.68889ZM104.854 15.4667C104.463 15.6563 103.977 15.7985 103.397 15.8933C102.828 15.9763 102.247 16.0178 101.654 16.0178H95.6632V13.1733H101.761C102.318 13.1733 102.875 13.1319 103.432 13.0489C104.001 12.9659 104.475 12.8415 104.854 12.6756V15.4667ZM125.986 11.0578H123.106V8.17778H121.63V10.6311H113.559V3.05778H121.63V5.33333H123.106V2.95111H125.986V11.0578ZM116.421 5.56444V8.10667H118.75V5.56444H116.421ZM125.986 11.4667V16.8178H123.052V14.0622H114.181V11.4667H125.986ZM140.064 16.6044H137.184V10.6667H134.695C134.185 12.3733 133.326 13.6948 132.117 14.6311C130.92 15.5556 129.462 16.0178 127.744 16.0178V13.1378C129.225 13.1259 130.34 12.5926 131.086 11.5378C131.845 10.483 132.224 8.97778 132.224 7.02222V5.97333H127.744V3.21778H135.157V7.04V7.82222H137.184V2.95111H140.064V16.6044ZM151.209 16.6044V2.95111H154.107V16.6044H151.209ZM144.827 10.9511V13.2978H147.333C147.938 13.2978 148.542 13.2385 149.147 13.12C149.763 12.9896 150.278 12.8296 150.693 12.64V15.36C150.302 15.5615 149.787 15.7215 149.147 15.84C148.518 15.9585 147.872 16.0178 147.209 16.0178H141.947V8.26667H146.658V5.95555H141.929V3.21778H149.52V10.9511H144.827ZM168.802 9.61778V2.95111H171.7V9.61778H168.802ZM163.256 2.93333C164.097 2.93333 164.838 3.07556 165.478 3.36C166.118 3.63259 166.61 4.0237 166.954 4.53333C167.309 5.03111 167.487 5.61185 167.487 6.27556C167.487 6.93926 167.309 7.52593 166.954 8.03556C166.61 8.54518 166.118 8.9363 165.478 9.20889C164.838 9.48148 164.097 9.61778 163.256 9.61778C161.964 9.61778 160.939 9.31556 160.18 8.71111C159.422 8.10667 159.043 7.29481 159.043 6.27556C159.043 5.61185 159.214 5.03111 159.558 4.53333C159.902 4.0237 160.388 3.63259 161.016 3.36C161.656 3.07556 162.403 2.93333 163.256 2.93333ZM163.256 5.29778C162.853 5.29778 162.527 5.38667 162.278 5.56444C162.029 5.74222 161.905 5.97926 161.905 6.27556C161.905 6.56 162.029 6.79704 162.278 6.98667C162.527 7.16444 162.853 7.25333 163.256 7.25333C163.671 7.25333 164.003 7.16444 164.251 6.98667C164.5 6.79704 164.625 6.56 164.625 6.27556C164.625 5.97926 164.5 5.74222 164.251 5.56444C164.014 5.38667 163.683 5.29778 163.256 5.29778ZM162.936 14.2578V14.5778H171.789V16.6578H160.074V12.4267H168.838V12.1067H160.038V10.0267H171.7V14.2578H162.936ZM182.881 16.6044V2.95111H185.778V16.6044H182.881ZM181.138 7.04C181.138 8.87704 180.824 10.4711 180.196 11.8222C179.58 13.1733 178.697 14.2104 177.547 14.9333C176.41 15.6563 175.082 16.0178 173.565 16.0178V13.1378C175.058 13.1259 176.196 12.5807 176.978 11.5022C177.761 10.4237 178.152 8.93037 178.152 7.02222V5.97333H173.565V3.21778H181.138V7.04ZM200.923 7.80444H199.483V10.4533H196.603V2.95111H199.483V4.88889H200.923V7.80444ZM191.839 8.33778C191.27 8.97778 190.594 9.49333 189.812 9.88444C189.03 10.2637 188.194 10.4474 187.305 10.4356V7.78667C187.791 7.77481 188.236 7.66222 188.639 7.44889C189.042 7.2237 189.374 6.94518 189.634 6.61333C189.895 6.26963 190.073 5.92 190.168 5.56444H187.483V3.05778H195.768V5.56444H193.083L192.994 6.09778L196.23 7.91111L194.879 10.1511L191.839 8.33778ZM193.652 10.5778C195.465 10.5778 196.905 10.8207 197.972 11.3067C199.051 11.7926 199.59 12.5867 199.59 13.6889C199.59 14.7911 199.051 15.5852 197.972 16.0711C196.905 16.5689 195.465 16.8178 193.652 16.8178C191.839 16.8178 190.393 16.5689 189.314 16.0711C188.248 15.5852 187.714 14.7911 187.714 13.6889C187.714 12.5867 188.248 11.7926 189.314 11.3067C190.393 10.8207 191.839 10.5778 193.652 10.5778ZM193.652 14.4C194.505 14.4 195.187 14.3467 195.697 14.24C196.206 14.1215 196.461 13.9378 196.461 13.6889C196.461 13.4519 196.2 13.28 195.679 13.1733C195.169 13.0548 194.494 12.9956 193.652 12.9956C191.768 12.9956 190.825 13.2267 190.825 13.6889C190.825 14.163 191.768 14.4 193.652 14.4Z" fill="#7D7AFF"/>
</svg>
