<svg width="41" height="40" viewBox="0 0 41 40" fill="none" xmlns="http://www.w3.org/2000/svg">
<path fill-rule="evenodd" clip-rule="evenodd" d="M20.425 22.8984L7.74501 12.8418C7.31436 12.5007 6.96075 12.0723 6.70739 11.5848C6.45403 11.0974 6.30666 10.5618 6.27496 10.0133C6.24325 9.46489 6.32792 8.91592 6.52342 8.40251C6.71892 7.88909 7.02081 7.42284 7.40928 7.03437C7.79775 6.64591 8.264 6.34401 8.77742 6.14851C9.29083 5.95302 9.8398 5.86834 10.3883 5.90005C10.9367 5.93175 11.4723 6.07912 11.9597 6.33248C12.4472 6.58584 12.8756 6.93945 13.2167 7.3701L23.2733 20.0501C25.4517 19.0984 28.7733 18.9701 31.5717 21.7668C33.2633 23.4601 34.3167 25.5301 34.6767 27.5001C35.0267 29.4168 34.7583 31.5434 33.3383 32.9634C31.92 34.3834 29.7917 34.6518 27.8767 34.3018C25.9067 33.9418 23.835 32.8884 22.1433 31.1951C19.3433 28.3968 19.4733 25.0768 20.425 22.8984Z" fill="#BCBCC0"/>
<path d="M10.3593 6.39941C10.8373 6.42705 11.3045 6.55553 11.7294 6.77637C12.1011 6.9696 12.4335 7.22954 12.7099 7.54297L12.8251 7.68066L22.8817 20.3604L23.121 20.6621L23.4735 20.5078C25.5022 19.6216 28.5929 19.4972 31.2177 22.1201C32.841 23.745 33.8435 25.7243 34.1845 27.5898C34.5188 29.4205 34.2438 31.3519 32.9853 32.6104H32.9843C31.7276 33.8683 29.7956 34.1438 27.9667 33.8096C26.2176 33.4899 24.3674 32.5888 22.8056 31.1387L22.497 30.8418C19.8706 28.217 19.9964 25.1275 20.8827 23.0986L21.037 22.7461L20.7353 22.5068L8.05557 12.4502C7.6803 12.1529 7.3721 11.7793 7.15128 11.3545C6.93044 10.9296 6.80196 10.4624 6.77432 9.98438C6.7467 9.50635 6.82073 9.02755 6.99112 8.58008C7.16153 8.13275 7.42412 7.72618 7.7626 7.3877C8.10109 7.04921 8.50766 6.78662 8.95499 6.61621C9.40246 6.44582 9.88126 6.37179 10.3593 6.39941Z" stroke="black" stroke-opacity="0.09"/>
</svg>
